<?xml version="1.0" standalone="no"?>
<!DOCTYPE svg PUBLIC "-//W3C//DTD SVG 20010904//EN"
 "http://www.w3.org/TR/2001/REC-SVG-20010904/DTD/svg10.dtd">
<svg version="1.0" xmlns="http://www.w3.org/2000/svg"
 width="300.000000pt" height="144.000000pt" viewBox="0 0 300.000000 144.000000"
 preserveAspectRatio="xMidYMid meet">
<metadata>
Created by potrace 1.10, written by Peter Selinger 2001-2011
</metadata>
<g transform="translate(0.000000,144.000000) scale(0.100000,-0.100000)"
fill="#000000" stroke="none">
<path d="M440 1403 c0 -10 -335 -581 -351 -597 -20 -21 -5 -26 81 -26 l90 0 0
-310 0 -310 191 0 190 0 -3 310 -3 309 92 3 92 3 -183 308 c-185 311 -196 328
-196 310z m165 -326 c83 -138 151 -255 153 -258 1 -3 -34 -4 -78 -1 l-80 5 0
-317 0 -316 -150 0 -150 0 0 316 0 317 -80 -6 c-44 -3 -80 -4 -80 -2 0 2 60
104 133 227 74 122 142 238 151 256 9 17 20 32 24 32 4 0 75 -114 157 -253z"/>
<path d="M835 871 c-4 -7 -3 -16 1 -21 5 -4 494 -10 1087 -14 1075 -6 1077 -6
1077 14 0 20 -5 20 -607 20 -335 0 -820 3 -1079 7 -371 5 -472 4 -479 -6z"/>
<path d="M870 470 l0 -280 35 0 35 0 0 120 0 120 44 0 c60 0 88 -26 156 -144
54 -94 55 -95 94 -96 28 0 37 4 33 13 -13 34 -139 218 -157 229 -22 14 -26 28
-8 28 25 0 78 46 94 82 20 45 14 109 -13 147 -36 48 -77 61 -200 61 l-113 0 0
-280z m239 194 c36 -30 42 -78 14 -124 -22 -38 -52 -50 -123 -50 l-60 0 0 100
0 100 69 0 c60 0 74 -3 100 -26z"/>
<path d="M1491 728 c-5 -13 -50 -131 -101 -263 -51 -132 -95 -248 -97 -257 -4
-15 1 -18 30 -18 35 0 35 1 63 80 l27 80 121 0 121 0 28 -80 28 -80 40 0 c30
0 38 3 32 12 -4 7 -53 132 -109 278 l-102 265 -36 3 c-30 3 -38 -1 -45 -20z
m134 -300 c6 -16 -1 -18 -90 -18 -79 0 -96 3 -92 14 3 8 25 70 48 137 l43 124
41 -120 c23 -66 45 -128 50 -137z"/>
<path d="M1865 469 l0 -282 115 6 c138 6 192 23 250 79 59 57 81 111 81 203 0
100 -17 151 -67 202 -57 57 -116 73 -263 73 l-116 0 0 -281z m247 211 c45 -13
93 -51 115 -94 27 -50 23 -171 -8 -226 -38 -69 -98 -101 -203 -107 l-86 -6 0
222 0 221 73 0 c39 0 89 -5 109 -10z"/>
<path d="M2425 470 l0 -280 148 0 147 0 0 33 0 32 -115 -3 -115 -3 0 100 0
101 103 0 103 0 -2 28 -1 27 -101 0 -102 0 0 93 0 92 110 0 110 0 0 30 0 30
-142 0 -143 0 0 -280z"/>
<path d="M0 95 l0 -25 1500 0 1500 0 0 25 0 25 -1500 0 -1500 0 0 -25z"/>
</g>
</svg>
